<?xml version="1.0" encoding="UTF-8"?>
<svg version="1.1" viewBox="0 0 1919 973" width="1280" height="1280" xmlns="http://www.w3.org/2000/svg">
<path transform="translate(0)" d="m0 0h1919v973h-1919z" fill="#FAFBFC"/>
<path transform="translate(270,726)" d="m0 0h1060v38h-1060z" fill="#93A2B7"/>
<path transform="translate(341,383)" d="m0 0h6v224h18v-209h152v209h38v-2h152v2h38v-36h152v36h209v1h-474v5l-2-4-188-1v5l-2-4-99-1v-1h5l-1-54-4-2h5l-1-54-4-2h5l-1-54-4-2h5l-1-54z" fill="#C3C2FF"/>
<path transform="translate(341,383)" d="m0 0h6v224h18v-69h152v69h38v-2h152v2h38v-36h152v36h209v1h-474v5l-2-4-188-1v5l-2-4-99-1v-1h5l-1-54-4-2h5l-1-54-4-2h5l-1-54-4-2h5l-1-54z" fill="#4C4AD1"/>
<path transform="translate(1901,24)" d="m0 0h17v772h-17z" fill="#C1C1C1"/>
<path transform="translate(745,487)" d="m0 0h152v84l-1 1h-150l-1-1z" fill="#C2C1FE"/>
<path transform="translate(24,103)" d="m0 0h192l4 4v52l-4 4h-192l-4-4v-52z" fill="#C2DCFD"/>
<path transform="translate(22,25)" d="m0 0h198v59h-198z" fill="#4D4AD2"/>
<path transform="translate(0)" d="m0 0h1919v3h-1919z" fill="#3C3C3C"/>
<path transform="translate(745,571)" d="m0 0h152v36h209v1h-361z" fill="#4B48D1"/>
<path transform="translate(555,577)" d="m0 0h152v28h-152z" fill="#C3C2FF"/>
<path transform="translate(1370,891)" d="m0 0h477l2 2-1 4-1 1h-477l-2-2 1-4z" fill="#CAD4E0"/>
<path transform="translate(1370,699)" d="m0 0h477l2 2-1 4-1 1h-477l-2-2 1-4z" fill="#CAD4E0"/>
<path transform="translate(1370,507)" d="m0 0h477l2 2-1 4-1 1h-477l-2-2 1-4z" fill="#CAD4E0"/>
<path transform="translate(283,964)" d="m0 0 5 2-2 1-5 1-1 4h9l1-4h5l1 4v-4h2l2 3 2-3 2 1-2 3h3l1-4 5 1 1 1 1-2h5l-4 4h231v-2h-3l1-3 1 2h2v3h2l1-7 4-1 3 3v5h2l1-7 4-1 3 3v5h2l1-7 4-1 3 3v5h1343v1h-1919v-1h279v-5z" fill="#040A18"/>
<path transform="translate(1370,507)" d="m0 0h237l2 2-1 4-1 1h-237l-2-2 1-4z" fill="#4B48D2"/>
<path transform="translate(1816,234)" d="m0 0h7l8 3 7 6 3 6 1 4v7l-3 8-6 7-6 3-4 1h-7l-8-3-7-6-3-6-1-4v-7l3-8 6-7 6-3z" fill="#4B48D1"/>
<path transform="translate(1277,234)" d="m0 0h7l8 3 7 6 3 6 1 4v7l-3 8-6 7-6 3-4 1h-7l-8-3-7-6-3-6-1-4v-7l3-8 6-7 6-3z" fill="#4C49D1"/>
<path transform="translate(737,234)" d="m0 0h7l8 3 7 6 3 6 1 4v7l-3 8-6 7-6 3-4 1h-7l-8-3-7-6-3-6-1-4v-7l3-8 6-7 6-3z" fill="#4B48D1"/>
<path transform="translate(1370,891)" d="m0 0h204l2 2-1 4-1 1h-204l-2-2 1-4z" fill="#4B48D2"/>
<path transform="translate(283,964)" d="m0 0 5 2-2 1-5 1-1 4h9l1-4h5l1 4v-4h2l2 3 2-3 2 1-2 3h3l1-4 5 1 1 1 1-2h5l-4 4h231v-2h-3l1-3 1 2h2v3h2l1-7 4-1 3 3v5h2l1-7 4-1 3 3v5h2l1-7 4-1 3 3v5l-1 1h-575v-1h279v-5z" fill="#040A18"/>
<path transform="translate(622,114)" d="m0 0h5l3 8 3-7 5 1v23l-5 6-3 1h-8l-5-4-3-11v-5l6-3h3l-2-7z" fill="#C1C1C1"/>
<path transform="translate(555,605)" d="m0 0h152v2h38v1h-113v5l-2-4-113-1v-1h38z" fill="#504FC6"/>
<path transform="translate(1863,22)" d="m0 0h7l7 4 3 5v8l-5 7-4 2h-8l-6-4-3-5v-8l4-6z" fill="#727987"/>
<path transform="translate(48,891)" d="m0 0h8l6 4 3 5v8l-5 7-4 2h-8l-6-4-3-5v-8l4-6z" fill="#707887"/>
<path transform="translate(1389,808)" d="m0 0h19l1 17 1 5h-23l1-6z" fill="#9595C5"/>
<path transform="translate(313,968)" d="m0 0h5l-5 4zm-30-4 5 2-2 1-5 1-1 4h9l1-4h5l1 4v-4h2l2 3 2-3 2 1-2 3h3l1-4 5 1 2 4h-313v-1h279v-5z" fill="#040A18"/>
<path transform="translate(1391,426)" d="m0 0 6 1h4l5-1 4 5v14h-23v-15z" fill="#ABABAC"/>
<path transform="translate(1390,616)" d="m0 0h17v22h-17z" fill="#4A49B9"/>
<path transform="translate(440,118)" d="m0 0h13l5 4v6l-5 5 6 7v2h-6l-6-8-1 8h-6z" fill="#040A18"/>
<path transform="translate(1370,699)" d="m0 0h47l2 2-1 4-1 1h-47l-2-2 1-4z" fill="#4B48D2"/>
<path transform="translate(42,258)" d="m0 0h17v20l-15 1h-2z" fill="#DCDEE2"/>
<path transform="translate(272,118)" d="m0 0h6v9h9v-9h6v24h-6v-10h-9v10h-6z" fill="#040A18"/>
<path transform="translate(1276,246)" d="m0 0h9l4 3v15l-4 3h-9l-4-3v-15z" fill="#6D6DD7"/>
<path transform="translate(739,246)" d="m0 0 5 1 5 3 2 5-1 5-3 5-4 2h-5l-6-4-2-5 1-5 3-5z" fill="#5150CF"/>
<path transform="translate(48,190)" d="m0 0 8 1 5 8-2 7-3 3-9 1-5-3-2-4v-5l4-6z" fill="#F1F2F4"/>
<path transform="translate(527,118)" d="m0 0h13l4 2 1 2v7l-4 4h-8v9h-6z" fill="#040A18"/>
<path transform="translate(419,118)" d="m0 0h13l4 2 1 2v7l-4 4h-8v9h-6z" fill="#040A18"/>
<path transform="translate(554,118)" d="m0 0h5l9 22v2h-6l-1-3-10-1-1 4h-5l3-10 5-13z" fill="#171D2A"/>
<path transform="translate(510,118)" d="m0 0h5l9 22v2h-6l-1-3-10-1-1 4h-5l3-10 5-13z" fill="#171D2A"/>
<path transform="translate(469,118)" d="m0 0h5l9 22v2h-6l-1-3-10-1-1 4h-5l3-10 5-13z" fill="#171D2A"/>
<path transform="translate(1069,922)" d="m0 0h7l1 4h5l-1 2-1 13-1 1h-14l-1-14-1-2 4-1z" fill="#F6F7F8"/>
<path transform="translate(1069,885)" d="m0 0h7l1 4h5l-1 2-1 13-1 1h-14l-1-14-1-2 4-1z" fill="#F6F7F8"/>
<path transform="translate(1069,847)" d="m0 0h7l1 4h5l-1 2-1 13-1 1h-14l-1-14-1-2 4-1z" fill="#F6F7F8"/>
<path transform="translate(1069,810)" d="m0 0h7l1 4h5l-1 2-1 13-1 1h-14l-1-14-1-2 4-1z" fill="#F6F7F8"/>
<path transform="translate(1069,772)" d="m0 0h7l1 4h5l-1 2-1 13-1 1h-14l-1-14-1-2 4-1z" fill="#F6F7F8"/>
<path transform="translate(49,325)" d="m0 0 4 1 5 2 1 1v10l-4 5-6 2-5-3-2-3v-12z" fill="#ECEEF0"/>
<path transform="translate(379,125)" d="m0 0h12v17h-13l-4-5v-7z" fill="#040A18"/>
<path transform="translate(567,118)" d="m0 0h20v5h-7v19h-6v-19h-7z" fill="#040A18"/>
<path transform="translate(1390,809)" d="m0 0h17v12h-17z" fill="#C3DDFE"/>
<path transform="translate(551,964)" d="m0 0 4 1 1 7h2l1-7 4-1 3 3v5h2l1-7 4-1 3 3v5l-1 1h-32l2-1v-2h-3l1-3 1 2h2v3h2l1-7z" fill="#040A18"/>
<path transform="translate(393,125)" d="m0 0h6l2 9h2l2-9h6l-3 9-7 15h-5l2-6-1-7z" fill="#040A18"/>
<path transform="translate(879,258)" d="m0 0h7l3 3 1 6-2 5-2 2h-6l-4-4v-8z" fill="#040A18"/>
<path transform="translate(362,258)" d="m0 0h7l3 3 1 6-2 5-2 2h-6l-4-4v-8z" fill="#040A18"/>
<path transform="translate(347,258)" d="m0 0h7l3 3 1 6-2 5-2 2h-6l-4-4v-8z" fill="#040A18"/>
<path transform="translate(332,258)" d="m0 0h7l3 3 1 6-2 5-2 2h-6l-4-4v-8z" fill="#040A18"/>
<path transform="translate(1813,247)" d="m0 0h13l3 5 1 8-2 4-1-3-5-1 1-4 4-1v-2h-15v11l-2-1v-13z" fill="#BDBDF3"/>
<path transform="translate(1812,253)" d="m0 0h15v2l-4 2v3l4 1-1 5h-13l-1-1z" fill="#6866D9"/>
<path transform="translate(1069,960)" d="m0 0h7l1 4h5l-2 8h-15l-2-8 4-1z" fill="#6E7178"/>
<path transform="translate(177,33)" d="m0 0h14l-1 3h-3v2h4v2h-4l-1 4-4 1 3 5 4 6-5-1-8-9 1-3 7-1v-2h-8l1-2 4-1-5-1z" fill="#EEEFFC"/>
<path transform="translate(494,118)" d="m0 0h5v19l-4 5h-9l-2-4 4-2 3 1 2-1z" fill="#040A18"/>
<path transform="translate(366,118)" d="m0 0h5v19l-4 5h-9l-2-4 4-2 3 1 2-1z" fill="#040A18"/>
<path transform="translate(855,257)" d="m0 0 5 2 1 4-1 3 1 1v5l-2 2h-7l-2-2v-5l1-2-1-4 2-3z" fill="#2D333E"/>
<path transform="translate(312,257)" d="m0 0 5 2 1 4-1 3 1 1v5l-2 2h-7l-2-2v-5l1-2-1-4 2-3z" fill="#2D333E"/>
<path transform="translate(801,739)" d="m0 0 8 1 3 3h7v7h-6l-1-3-4 3h-7z" fill="#0F1624"/>
<path transform="translate(42,258)" d="m0 0h17v20l-15 1h-2zm4 2-2 1v15h13v-15l-6-1z" fill="#788090"/>
<path transform="translate(590,118)" d="m0 0h6v24h-6z" fill="#040A18"/>
<path transform="translate(1069,922)" d="m0 0h7l1 4h5l-1 2-1 13-1 1h-14l-1-14-1-2 4-1zm-2 6v13h10l1-1v-12z" fill="#71767E"/>
<path transform="translate(1069,885)" d="m0 0h7l1 4h5l-1 2-1 13-1 1h-14l-1-14-1-2 4-1zm-2 6v13h10l1-1v-12z" fill="#71767E"/>
<path transform="translate(1069,847)" d="m0 0h7l1 4h5l-1 2-1 13-1 1h-14l-1-14-1-2 4-1zm-2 6v13h10l1-1v-12z" fill="#71767E"/>
<path transform="translate(1069,810)" d="m0 0h7l1 4h5l-1 2-1 13-1 1h-14l-1-14-1-2 4-1zm-2 6v13h10l1-1v-12z" fill="#71767E"/>
<path transform="translate(1069,772)" d="m0 0h7l1 4h5l-1 2-1 13-1 1h-14l-1-14-1-2 4-1zm-2 6v13h10l1-1v-12z" fill="#71767E"/>
<path transform="translate(868,258)" d="m0 0h5l-2 1v4l4 4-1 5-2 2h-6l-3-2v-7z" fill="#2B303C"/>
<path transform="translate(811,161)" d="m0 0h9v12l-4 4-6-1v-3l6 1v-2l-5-1-2-2 1-7z" fill="#6B7280"/>
<path transform="translate(505,161)" d="m0 0h9v12l-4 4-6-1v-3l6 1v-2l-5-1-2-2 1-7z" fill="#6B7280"/>
<path transform="translate(344,700)" d="m0 0h7l2 2 2-2h6l1 5-1 3h-6l-1-3h-2l-1 3h-4l-1 3h-2z" fill="#282D39"/>
<path transform="translate(893,258)" d="m0 0h7l3 4-2 6-4 6h-5l2-1 1-4-4-3v-6z" fill="#2E333F"/>
<path transform="translate(1276,246)" d="m0 0h9l4 3v15l-4 3h-9l-4-3v-15zm8 2-10 1v15h13v-15z" fill="#EEEFFA"/>
<path transform="translate(48,895)" d="m0 0 5 1v3l2 1 1-2 1 7h-2l-1 7h-3v-4h-4l1 3h-3l-1-8 2-6 2 1 1-1z" fill="#B1B5B9"/>
<path transform="translate(1863,22)" d="m0 0h7l4 2v7l-2 3-2-3h-3v-2l-5 2-1-3v3h-2l-1-6z" fill="#6F7684"/>
<path transform="translate(739,246)" d="m0 0 5 1 5 3 2 5-1 5-3 5-4 2h-5l-6-4-2-5 1-5 3-5zm0 2-5 3-2 4 1 4 2 4 4 2 4-1 4-2 2-4-1-4-2-4-4-2z" fill="#E0E0FD"/>
<path transform="translate(709,643)" d="m0 0h13v9h-13z" fill="#C3C2FF"/>
<path transform="translate(609,643)" d="m0 0h13v9h-13z" fill="#4B48D2"/>
<path transform="translate(48,190)" d="m0 0 8 1 5 8-2 7-3 3-9 1-5-3-2-4v-5l4-6zm0 2-4 2v4h-2l1 5 2 4 4 2 4-1 4-2 1-8-2-4-4-2z" fill="#767E8D"/>
<path transform="translate(49,325)" d="m0 0 4 1 5 2 1 1v10l-4 5-6 2-5-3-2-3v-12zm0 2-5 3v9l4 4h5l3-3 1-3v-7l-6-3z" fill="#7E8695"/>
<path transform="translate(915,161)" d="m0 0h8l3 5-2 5-1 1h-5l-1 5h-2z" fill="#6B7280"/>
<path transform="translate(435,161)" d="m0 0h8l3 5-2 5-1 1h-5l-1 5h-2z" fill="#6B7280"/>
<path transform="translate(422,161)" d="m0 0h8l3 5-2 5-1 1h-5l-1 5h-2z" fill="#6B7280"/>
<path transform="translate(325,696)" d="m0 0h9v2h-6v3h5v2h-5v3h7v-4l-1-2 5 1 4-1-2 4 2 4-5-1-1 1h-12z" fill="#040A18"/>
<path transform="translate(336,357)" d="m0 0h3v4h5l2 2 1-2 3 1-5 10-3-1 1-4-2-4h-2v6h-3v-6h-2v6h-3v-8h5z" fill="#040A18"/>
<path transform="translate(799,161)" d="m0 0h8v11h-9l-2-3 1-7z" fill="#6B7280"/>
<path transform="translate(773,161)" d="m0 0h8v11h-9l-2-3 1-7z" fill="#6B7280"/>
<path transform="translate(411,161)" d="m0 0h8v11h-9l-2-3 1-7z" fill="#6B7280"/>
<path transform="translate(372,161)" d="m0 0h8v11h-9l-2-3 1-7z" fill="#6B7280"/>
<path transform="translate(48,891)" d="m0 0h8l3 2-1 10-3-3-3-1-1-3h-2l2 2-3 2-2-3v3h-2v-6z" fill="#6E7583"/>
<path transform="translate(1404,616)" d="m0 0h3v22h-17v-3h14z" fill="#6A6CA5"/>
<path transform="translate(1381,258)" d="m0 0h5l-4 8 2 1v-3h4v3h2v3h-2v4h-4v-4h-8l2-6z" fill="#040A18"/>
<path transform="translate(752,156)" d="m0 0h2l6 9 6-9h1v16h-2l-1-8-3 5-3-1-3-5-1 9h-2z" fill="#6B7280"/>
<path transform="translate(1404,338)" d="m0 0h7l2 2v9l-1 1h-8z" fill="#313642"/>
<path transform="translate(1874,25)" d="m0 0 3 1 3 5v8l-4 6-3-2v-12z" fill="#6F7786"/>
<path transform="translate(908,258)" d="m0 0h11v3l-1 3h-2v2l-3 2 5 6-5-1-5-5-1-5 2-2-2-2z" fill="#040A18"/>
<path transform="translate(378,258)" d="m0 0h11v3l-1 3h-2v2l-3 2 5 6-5-1-5-5-1-5 2-2-2-2z" fill="#040A18"/>
<path transform="translate(853,161)" d="m0 0 7 1 1 7-3 3-7-1-1-7z" fill="#6B7280"/>
<path transform="translate(643,161)" d="m0 0 7 1 1 7-3 3-7-1-1-7z" fill="#6B7280"/>
<path transform="translate(583,161)" d="m0 0 7 1 1 7-3 3-7-1-1-7z" fill="#6B7280"/>
<path transform="translate(1841,813)" d="m0 0h5l3 4-1 6-2 2h-5l-2-2v-8z" fill="#4B48D2"/>
<path transform="translate(1830,813)" d="m0 0h5l3 4-1 6-2 2h-5l-2-2v-8z" fill="#4B48D2"/>
<path transform="translate(1819,813)" d="m0 0h5l3 4-1 6-2 2h-5l-2-2v-8z" fill="#4B48D2"/>
<path transform="translate(1808,813)" d="m0 0h5l3 4-1 6-2 2h-5l-2-2v-8z" fill="#4B48D2"/>
<path transform="translate(1841,621)" d="m0 0h5l3 4-1 6-2 2h-5l-2-2v-8z" fill="#4B48D2"/>
<path transform="translate(1830,621)" d="m0 0h5l3 4-1 6-2 2h-5l-2-2v-8z" fill="#4B48D2"/>
<path transform="translate(1819,621)" d="m0 0h5l3 4-1 6-2 2h-5l-2-2v-8z" fill="#4B48D2"/>
<path transform="translate(1808,621)" d="m0 0h5l3 4-1 6-2 2h-5l-2-2v-8z" fill="#4B48D2"/>
<path transform="translate(1841,429)" d="m0 0h5l3 4-1 6-2 2h-5l-2-2v-8z" fill="#4B48D2"/>
<path transform="translate(1830,429)" d="m0 0h5l3 4-1 6-2 2h-5l-2-2v-8z" fill="#4B48D2"/>
<path transform="translate(1819,429)" d="m0 0h5l3 4-1 6-2 2h-5l-2-2v-8z" fill="#4B48D2"/>
<path transform="translate(1808,429)" d="m0 0h5l3 4-1 6-2 2h-5l-2-2v-8z" fill="#4B48D2"/>
<path transform="translate(1797,429)" d="m0 0h5l3 4-1 6-2 2h-5l-2-2v-8z" fill="#4B48D2"/>
<path transform="translate(1861,28)" d="m0 0 2 1-1 2 5-2v2h3l1-2 1 7h-2l-1 7h-2l-1-4-4-1-3-4z" fill="#AEB1B8"/>
<path transform="translate(290,968)" d="m0 0h5l1 4v-4h2l2 3 2-3 2 1-2 3h3l1-4 5 1 2 4h-26l2-1zm23 0h5l-5 4z" fill="#232835"/>
<path transform="translate(59,893)" d="m0 0 4 4 2 3v8l-3 3-1-1-2 3-2-3z" fill="#94A1B6"/>
<path transform="translate(114,131)" d="m0 0h5 3 6v7h-6l-2-2-2 2-5-1-1-3z" fill="#7278E0"/>
<path transform="translate(70,127)" d="m0 0 7 1 2 2v6l-3 2h-6z" fill="#4B48D2"/>
<path transform="translate(1435,342)" d="m0 0h7v10l-3 2-6-1 2-3-2-3z" fill="#202632"/>
<path transform="translate(297,125)" d="m0 0h5v17h-5z" fill="#040A18"/>
<path transform="translate(312,357)" d="m0 0h3v4h2v2h-2v6h-3v-6l-6 1v2l4 1-1 2h-5l-2-5 2-3h8z" fill="#040A18"/>
<path transform="translate(837,258)" d="m0 0h12l-3 10-2 6h-4l3-10 1-3h-7z" fill="#040A18"/>
<path transform="translate(621,161)" d="m0 0h7 3 5l1 1v10h-2v-9l-4 1-1 8h-2l-1-8-4-1v9h-2z" fill="#6B7280"/>
<path transform="translate(272,156)" d="m0 0h2v7h8v-7h2v16h-2v-7h-8v7h-2z" fill="#6B7280"/>
<path transform="translate(295,357)" d="m0 0h3l4 10v2h-3v-2l-9 2z" fill="#1E2330"/>
<path transform="translate(965,161)" d="m0 0h5l3 4v2h-9l1 2h6v3h-6l-3-3 1-7z" fill="#A5AAB3"/>
<path transform="translate(930,161)" d="m0 0h5l3 4v2h-9l1 2h6v3h-6l-3-3 1-7z" fill="#A5AAB3"/>
<path transform="translate(893,161)" d="m0 0h5l3 4v2h-9l1 2h6v3h-6l-3-3 1-7z" fill="#A5AAB3"/>
<path transform="translate(825,161)" d="m0 0h5l3 4v2h-9l1 2h6v3h-6l-3-3 1-7z" fill="#A5AAB3"/>
<path transform="translate(715,161)" d="m0 0h5l3 4v2h-9l1 2h6v3h-6l-3-3 1-7z" fill="#A5AAB3"/>
<path transform="translate(669,161)" d="m0 0h5l3 4v2h-9l1 2h6v3h-6l-3-3 1-7z" fill="#A5AAB3"/>
<path transform="translate(450,161)" d="m0 0h5l3 4v2h-9l1 2h6v3h-6l-3-3 1-7z" fill="#A5AAB3"/>
<path transform="translate(311,161)" d="m0 0h5l3 4v2h-9l1 2h6v3h-6l-3-3 1-7z" fill="#A5AAB3"/>
<path transform="translate(290,161)" d="m0 0h5l3 4v2h-9l1 2h6v3h-6l-3-3 1-7z" fill="#A5AAB3"/>
<path transform="translate(43,894)" d="m0 0h1l1 10v7l-5-1-1-2v-8z" fill="#6F7685"/>
<path transform="translate(70,194)" d="m0 0 7 1v5 4l-1 1h-6z" fill="#9399A3"/>
<path transform="translate(520,161)" d="m0 0h3l2 6 3-6 2 1 1 5h2l2-6 2 1-4 10h-2l-2-5-3 5h-2z" fill="#6B7280"/>
<path transform="translate(338,161)" d="m0 0h3l2 6 3-6 2 1 1 5h2l2-6 2 1-4 10h-2l-2-5-3 5h-2z" fill="#6B7280"/>
<path transform="translate(52,134)" d="m0 0h7l1 7-2 2-7-1v-7z" fill="#747BE1"/>
<path transform="translate(551,964)" d="m0 0 4 1 1 6-3 2h-10l2-1v-2h-3l1-3 1 2h2v3h2l1-7z" fill="#040A18"/>
<path transform="translate(1430,338)" d="m0 0h2v12h-7l-2-5 2-3h5z" fill="#2D323E"/>
<path transform="translate(1800,813)" d="m0 0 3 1-2 2 3 2v5l-2 2h-5l-2-5 4-6z" fill="#6866D9"/>
<path transform="translate(114,39)" d="m0 0h7l1 5-1 2 2 6h-2l-3-5-3-1v5h-1z" fill="#A6A5ED"/>
<path transform="translate(42,134)" d="m0 0h6l1 1v7l-1 1h-6l-1-1v-7z" fill="#737ADD"/>
<path transform="translate(52,124)" d="m0 0h7l1 1v6l-1 1h-7l-1-1v-6z" fill="#737ADD"/>
<path transform="translate(1855,38)" d="m0 0 3 1 3 3 9 2 2 3-1 1h-8l-6-4-2-3z" fill="#474A4E"/>
<path transform="translate(1067,966)" d="m0 0h11v6h-11z" fill="#FBFCFD"/>
<path transform="translate(1069,922)" d="m0 0h5l-4 3 4 2h-8l1 13h10l1-12h1v14h-14l-1-14-1-2 4-1z" fill="#404042"/>
<path transform="translate(1069,885)" d="m0 0h5l-4 3 4 2h-8l1 13h10l1-12h1v14h-14l-1-14-1-2 4-1z" fill="#404042"/>
<path transform="translate(1069,847)" d="m0 0h5l-4 3 4 2h-8l1 13h10l1-12h1v14h-14l-1-14-1-2 4-1z" fill="#404042"/>
<path transform="translate(1069,810)" d="m0 0h5l-4 3 4 2h-8l1 13h10l1-12h1v14h-14l-1-14-1-2 4-1z" fill="#404042"/>
<path transform="translate(1069,772)" d="m0 0h5l-4 3 4 2h-8l1 13h10l1-12h1v14h-14l-1-14-1-2 4-1z" fill="#404042"/>
<path transform="translate(90,333)" d="m0 0h6v8l-2 2h-5l-1-7z" fill="#969BA5"/>
<path transform="translate(97,198)" d="m0 0h6v8l-2 2h-5l-1-7z" fill="#969BA5"/>
<path transform="translate(41,124)" d="m0 0h8v8h-8z" fill="#737AD9"/>
<path transform="translate(282,700)" d="m0 0h7v8h-7l-2-5z" fill="#333843"/>
<path transform="translate(1361,342)" d="m0 0h7v8h-7l-2-5z" fill="#333843"/>
<path transform="translate(1797,621)" d="m0 0h5l2 2-1 5-2 2 3 1v2h-9l2-4 3-3 1-3-5 2v-3z" fill="#4B48D2"/>
<path transform="translate(165,39)" d="m0 0h6l1 1v8l1 3h-2l-2-5h-3v5h-1z" fill="#B5B5EE"/>
<path transform="translate(53,39)" d="m0 0h7l1 5-2 2h-4v5h-2z" fill="#A5A4EE"/>
<path transform="translate(279,739)" d="m0 0 3 1 3 4 1-5h2v11l-4-2-2-3-1 5h-2z" fill="#040A18"/>
<path transform="translate(552,156)" d="m0 0h2l1 5 5 1 1 1v9h-2l-1-8-4-1v9h-2z" fill="#6B7280"/>
<path transform="translate(396,156)" d="m0 0h2l1 5 5 1 1 1v9h-2l-1-8-4-1v9h-2z" fill="#6B7280"/>
<path transform="translate(357,156)" d="m0 0h2l1 5 5 1 1 1v9h-2l-1-8-4-1v9h-2z" fill="#6B7280"/>
<path transform="translate(318,361)" d="m0 0h6l2 2 1-2 3 1-3 7h-3l-2-5-1 5h-3z" fill="#040A18"/>
<path transform="translate(319,258)" d="m0 0h7v16h-3v-13h-4z" fill="#040A18"/>
<path transform="translate(297,258)" d="m0 0h7v16h-3v-13h-4z" fill="#040A18"/>
<path transform="translate(1872,34)" d="m0 0h1l1 9 1 3-3 1-2-2-7-3 2-4 3 2-1 3h2l1-7h2z" fill="#6A7085"/>
<path transform="translate(1081,740)" d="m0 0h2v3h2v2h-2v5h-2v-5h-6v3l3-1 1 3h-5l-2-2 1-4 1-1h7z" fill="#040A18"/>
<path transform="translate(1065,739)" d="m0 0h3l4 11h-3v-2h-5v2l-3-1z" fill="#121928"/>
<path transform="translate(543,739)" d="m0 0h3l4 11h-3v-2h-5v2l-3-1z" fill="#121928"/>
<path transform="translate(294,490)" d="m0 0 4 1v5 4l-5 1-1-5 1-5z" fill="#A0A5AE"/>
<path transform="translate(46,196)" d="m0 0h9v5h-3v5l-6-1v-2l3-1-3-1z" fill="#7E8795"/>
<path transform="translate(382,700)" d="m0 0h6l1 5-1 3h-6l-2-5z" fill="#1D232F"/>
<path transform="translate(299,700)" d="m0 0h6l1 5-1 3h-6l-2-5z" fill="#1D232F"/>
<path transform="translate(1445,342)" d="m0 0h6l1 5-1 3h-6l-2-5z" fill="#1D232F"/>
<path transform="translate(1378,342)" d="m0 0h6l1 5-1 3h-6l-2-5z" fill="#1D232F"/>
<path transform="translate(551,743)" d="m0 0h11v7h-2v-5h-2v5h-3v-5h-2v5h-2z" fill="#040A18"/>
<path transform="translate(299,743)" d="m0 0h11v7h-2v-5h-2v5h-3v-5h-2v5h-2z" fill="#040A18"/>
<path transform="translate(1466,612)" d="m0 0h2v11h-6l-2-5 2-2h4z" fill="#2B303C"/>
<path transform="translate(1458,424)" d="m0 0h11v7h-2v-5h-2v5h-3v-5h-2v5h-2z" fill="#040A18"/>
<path transform="translate(881,261)" d="m0 0h4l1 2v6l-2 2-4-1-1-6z" fill="#FBFCFD"/>
<path transform="translate(364,261)" d="m0 0h4l1 2v6l-2 2-4-1-1-6z" fill="#FBFCFD"/>
<path transform="translate(349,261)" d="m0 0h4l1 2v6l-2 2-4-1-1-6z" fill="#FBFCFD"/>
<path transform="translate(334,261)" d="m0 0h4l1 2v6l-2 2-4-1-1-6z" fill="#FBFCFD"/>
<path transform="translate(118,329)" d="m0 0h2v11h-6l-2-4 2-3h4z" fill="#9196A1"/>
<path transform="translate(92,194)" d="m0 0h2v11h-6l-2-4 2-3h4z" fill="#9196A1"/>
<path transform="translate(141,127)" d="m0 0h2v11h-6l-2-4 2-3h4z" fill="#6B6FDD"/>
<path transform="translate(72,39)" d="m0 0h2l4 7 1-7h2v12l-4-2-2-4-2-1v7h-1z" fill="#E1E1FC"/>
<path transform="translate(1784,813)" d="m0 0h8v4l-4 4 3 4-4-1-3-3z" fill="#4B48D2"/>
<path transform="translate(697,640)" d="m0 0h2v11h-6l-1-1v-5l5-1z" fill="#8482E0"/>
<path transform="translate(1784,621)" d="m0 0h8v4l-4 4 3 4-4-1-3-3z" fill="#4B48D2"/>
<path transform="translate(640,615)" d="m0 0h2v11h-6l-1-1v-5l5-1z" fill="#9A9FA8"/>
<path transform="translate(1777,429)" d="m0 0h8v4l-4 4 3 4-4-1-3-3z" fill="#4B48D2"/>
<path transform="translate(677,161)" d="m0 0h3l3 6 3-6h2l-3 9-4 7-2-1 1-8z" fill="#6B7280"/>
<path transform="translate(568,161)" d="m0 0h3l3 6 3-6h2l-3 9-4 7-2-1 1-8z" fill="#6B7280"/>
<path transform="translate(104,127)" d="m0 0h2v4l5 1v5l-1 1h-6z" fill="#6B70DE"/>
<path transform="translate(1478,808)" d="m0 0h6l2 4-2 3h-4v3h-2z" fill="#2D323E"/>
<path transform="translate(1454,808)" d="m0 0h6l2 4-2 3h-4v3h-2z" fill="#2D323E"/>
<path transform="translate(1438,420)" d="m0 0h2v5h5v-5h2v11h-2v-4h-5v4h-2z" fill="#040A18"/>
<path transform="translate(838,156)" d="m0 0 4 2 3 4 4-6 3 1-5 7-1 8h-2l-2-9z" fill="#6B7280"/>
<path transform="translate(80,333)" d="m0 0h6l1 1v5l-5 1v3h-2z" fill="#9399A3"/>
<path transform="translate(87,266)" d="m0 0h6l1 1v5l-5 1v3h-2z" fill="#9399A3"/>
<path transform="translate(42,258)" d="m0 0h15l-2 3h-11v15h-1z" fill="#828D9D"/>
<path transform="translate(736,252)" d="m0 0h9v2l-2 1 2 2-3 3v2h-5l-1-3h4v-2l-4-1h4v-2h-4z" fill="#E9E9FC"/>
<path transform="translate(1415,237)" d="m0 0h5l2 7-2 2h-5z" fill="#6F737B"/>
<path transform="translate(330,237)" d="m0 0h5l2 7-2 2h-5z" fill="#6F737B"/>
<path transform="translate(48,891)" d="m0 0 7 1-1 3-6-1 3 4-3 2-2-3v3h-2v-6z" fill="#4B4D52"/>
<path transform="translate(363,700)" d="m0 0h7l1 1v7h-3v-6h-2v6h-3z" fill="#040A18"/>
<path transform="translate(940,161)" d="m0 0h7l2 2v9h-2l-1-8-4-1v9h-2z" fill="#6B7280"/>
<path transform="translate(863,161)" d="m0 0h2l1 8 4 1 1-9h2v8l-2 3h-6l-2-3z" fill="#6B7280"/>
<path transform="translate(784,161)" d="m0 0h7l2 2v9h-2l-1-8-4-1v9h-2z" fill="#6B7280"/>
<path transform="translate(654,161)" d="m0 0h7l2 2v9h-2l-1-8-4-1v9h-2z" fill="#6B7280"/>
<path transform="translate(593,161)" d="m0 0h2l1 8 4 1 1-9h2v8l-2 3h-6l-2-3z" fill="#6B7280"/>
<path transform="translate(491,161)" d="m0 0h7l2 2v9h-2l-1-8-4-1v9h-2z" fill="#6B7280"/>
<path transform="translate(473,161)" d="m0 0h7l2 2v9h-2l-1-8-4-1v9h-2z" fill="#6B7280"/>
<path transform="translate(460,161)" d="m0 0h7l2 2v9h-2l-1-8-4-1v9h-2z" fill="#6B7280"/>
<path transform="translate(290,743)" d="m0 0h7v7h-6l-2-5z" fill="#1D2534"/>
<path transform="translate(902,161)" d="m0 0 6 2 1-2 3 1-3 5 3 5h-3l-2-3-3 3-3-1h2l1-6z" fill="#6B7280"/>
<path transform="translate(138,38)" d="m0 0 6 2v2l-7-1-1 1v7l8-1-2 3h-6l-3-3v-6l2-3z" fill="#E4E5FA"/>
<path transform="translate(73,898)" d="m0 0h7v5l-5 1v4h-2z" fill="#979CA6"/>
<path transform="translate(105,333)" d="m0 0h6v7h-6l-2-4z" fill="#989DA7"/>
<path transform="translate(954,161)" d="m0 0h5v3l-5-1v2l6 2-1 5h-6v-3l5 1v-2l-5-2v-4z" fill="#6B7280"/>
<path transform="translate(738,161)" d="m0 0h5v3l-5-1v2l6 2-1 5h-6v-3l5 1v-2l-5-2v-4z" fill="#6B7280"/>
<path transform="translate(326,161)" d="m0 0h5v3l-5-1v2l6 2-1 5h-6v-3l5 1v-2l-5-2v-4z" fill="#6B7280"/>
<path transform="translate(700,156)" d="m0 0h2v14h8v2h-10z" fill="#6B7280"/>
<path transform="translate(343,136)" d="m0 0 5 1-1 7-2 3-3-1 1-4-1-5z" fill="#040A18"/>
<path transform="translate(82,131)" d="m0 0h6v7h-6l-2-4z" fill="#7076DF"/>
<path transform="translate(1874,25)" d="m0 0 3 1-1 15-2 3-1-1v-12z" fill="#94A3B8"/>
<path transform="translate(280,930)" d="m0 0h6v7h-6l-1-1v-5z" fill="#62666F"/>
<path transform="translate(1470,808)" d="m0 0h5l1 1v5l-1 1h-5l-2-5z" fill="#333843"/>
<path transform="translate(1091,743)" d="m0 0h5l1 1v5l-1 1h-5l-2-5z" fill="#1F2736"/>
<path transform="translate(565,743)" d="m0 0h5l1 1v5l-1 1h-5l-2-5z" fill="#1F2736"/>
<path transform="translate(728,644)" d="m0 0h6v7h-6l-1-1v-5z" fill="#D8D8FE"/>
<path transform="translate(648,644)" d="m0 0h6v7h-6l-1-1v-5z" fill="#8E8CE2"/>
<path transform="translate(1011,619)" d="m0 0h6v7h-6l-1-1v-5z" fill="#A2A6AF"/>
<path transform="translate(1450,424)" d="m0 0h5l1 1v5l-1 1h-5l-2-5z" fill="#333843"/>
<path transform="translate(70,262)" d="m0 0h7v2h-5v3h5v1h-5v3h5v2h-7z" fill="#6B7280"/>
<path transform="translate(315,39)" d="m0 0h6v7h-6l-1-1v-5z" fill="#BBC5D2"/>
<path transform="translate(271,696)" d="m0 0h3v10h5v2h-8z" fill="#040A18"/>
<path transform="translate(1440,612)" d="m0 0 5 1-3 3 3 2-1 5-7-1 2-2 4 1v-2l-5-2 1-4z" fill="#040A18"/>
<path transform="translate(295,384)" d="m0 0 2 1v2l2 2-1 4-5 1-1-1v-5z" fill="#9DA2AB"/>
<path transform="translate(1350,338)" d="m0 0h3v10h5v2h-8z" fill="#040A18"/>
<path transform="translate(381,130)" d="m0 0 5 1v6l-4 1-3-2 1-5z" fill="#FBFCFD"/>
<path transform="translate(533,122)" d="m0 0 7 1v5l-1 1h-6z" fill="#FBFCFD"/>
<path transform="translate(425,122)" d="m0 0 7 1v5l-1 1h-6z" fill="#FBFCFD"/>
<path transform="translate(1438,240)" d="m0 0h6v7l-2 2-4-1 3-1-4-4z" fill="#454A55"/>
<path transform="translate(353,240)" d="m0 0h6v7l-2 2-4-1 3-1-4-4z" fill="#454A55"/>
<path transform="translate(853,163)" d="m0 0h5l1 1v5l-1 1h-5l-1-1v-5z" fill="#FBFCFD"/>
<path transform="translate(643,163)" d="m0 0h5l1 1v5l-1 1h-5l-1-1v-5z" fill="#FBFCFD"/>
<path transform="translate(583,163)" d="m0 0h5l1 1v5l-1 1h-5l-1-1v-5z" fill="#FBFCFD"/>
<path transform="translate(146,39)" d="m0 0 3 3 2-3 2 1-3 5 4 4v2l-3-1-2-3-1 4h-2z" fill="#D0D0F9"/>
<path transform="translate(1416,870)" d="m0 0 5 1 5-1 1 3-1 2-5-1-4 1-1 2z" fill="#8F949F"/>
<path transform="translate(316,696)" d="m0 0h3v4h2v2h-2v6h-3v-6h-2v-2h2z" fill="#040A18"/>
<path transform="translate(292,696)" d="m0 0h3v4h2v2h-2v6h-3v-6h-2v-2h2z" fill="#040A18"/>
<path transform="translate(1409,678)" d="m0 0 5 1 5-1 1 3-1 2-5-1-4 1-1 2z" fill="#8F949F"/>
<path transform="translate(1419,486)" d="m0 0 5 1 5-1 1 3-1 2-5-1-4 1-1 2z" fill="#8F949F"/>
<path transform="translate(1454,338)" d="m0 0h3v4h2v2h-2v6h-3v-6h-2v-2h2z" fill="#040A18"/>
<path transform="translate(1395,338)" d="m0 0h3v4h2v2h-2v6h-3v-6h-2v-2h2z" fill="#040A18"/>
<path transform="translate(1371,338)" d="m0 0h3v4h2v2h-2v6h-3v-6h-2v-2h2z" fill="#040A18"/>
<path transform="translate(799,163)" d="m0 0h5l1 6-1 1h-5l-1-1v-5z" fill="#FBFCFD"/>
<path transform="translate(773,163)" d="m0 0h5l1 6-1 1h-5l-1-1v-5z" fill="#FBFCFD"/>
<path transform="translate(411,163)" d="m0 0h5l1 6-1 1h-5l-1-1v-5z" fill="#FBFCFD"/>
<path transform="translate(372,163)" d="m0 0h5l1 6-1 1h-5l-1-1v-5z" fill="#FBFCFD"/>
<path transform="translate(726,156)" d="m0 0h2v5h3v2h-3v9h-2v-9h-3v-2h3z" fill="#6B7280"/>
<path transform="translate(545,156)" d="m0 0h2v5h3v2h-3v9h-2v-9h-3v-2h3z" fill="#6B7280"/>
<path transform="translate(384,156)" d="m0 0h2v5h3v2h-3v9h-2v-9h-3v-2h3z" fill="#6B7280"/>
<path transform="translate(1863,22)" d="m0 0h7l2 6-5-2-5 1-3 1v-4z" fill="#33353B"/>
<path transform="translate(290,968)" d="m0 0h5l1 4 2 1h-11l2-1zm6 0h2l1 4-3-3z" fill="#4A4F59"/>
<path transform="translate(315,930)" d="m0 0h5l1 5-2 2-5-1v-5z" fill="#73777F"/>
<path transform="translate(307,930)" d="m0 0h5l1 5-2 2-5-1v-5z" fill="#73777F"/>
<path transform="translate(89,901)" d="m0 0h5l1 5-2 2-5-1v-5z" fill="#ACB0B8"/>
<path transform="translate(1447,808)" d="m0 0h5l1 4-1 3h-5l-2-2 1-4z" fill="#212633"/>
<path transform="translate(828,743)" d="m0 0h5l1 4-1 3h-5l-2-2 1-4z" fill="#151C2B"/>
<path transform="translate(313,743)" d="m0 0h5l1 4-1 3h-5l-2-2 1-4z" fill="#151C2B"/>
<path transform="translate(750,644)" d="m0 0h5l1 5-2 2-5-1v-5z" fill="#DCDCFE"/>
<path transform="translate(634,644)" d="m0 0h5l1 5-2 2-5-1v-5z" fill="#9A99E5"/>
<path transform="translate(830,619)" d="m0 0h5l1 5-2 2-5-1v-5z" fill="#ACB0B8"/>
<path transform="translate(434,619)" d="m0 0h5l1 5-2 2-5-1v-5z" fill="#ACB0B8"/>
<path transform="translate(1472,424)" d="m0 0h5l1 4-1 3h-5l-2-2 1-4z" fill="#212633"/>
<path transform="translate(1394,827)" d="m0 0h9v2h7v1h-23v-1h7z" fill="#94A3B8"/>
<path transform="translate(43,39)" d="m0 0 3 1 1 2 4-3-1 8 1 4-4-3-2 3-2-1 2-3-1-5z" fill="#E6E7FB"/>
<path transform="translate(392,699)" d="m0 0 4 1v4l-1 4h-5v-3h2l-2-1v-4z" fill="#040A18"/>
<path transform="translate(375,699)" d="m0 0 4 1v4l-1 4h-5v-3h2l-2-1v-4z" fill="#040A18"/>
<path transform="translate(309,699)" d="m0 0 4 1v4l-1 4h-5v-3h2l-2-1v-4z" fill="#040A18"/>
<path transform="translate(1462,341)" d="m0 0 4 1v4l-1 4h-5v-3h2l-2-1v-4z" fill="#040A18"/>
<path transform="translate(1388,341)" d="m0 0 4 1v4l-1 4h-5v-3h2l-2-1v-4z" fill="#040A18"/>
<path transform="translate(70,329)" d="m0 0h2v9l4-1 1-8h1v10l-1 1h-5l-2-2z" fill="#6B7280"/>
<path transform="translate(1811,249)" d="m0 0 1 2h12v1h-12v12l-2-1v-13z" fill="#FBFCFD"/>
<path transform="translate(812,163)" d="m0 0h5l1 5-2 2-4-1-1-5z" fill="#FBFCFD"/>
<path transform="translate(506,163)" d="m0 0h5l1 5-2 2-4-1-1-5z" fill="#FBFCFD"/>
<path transform="translate(127,39)" d="m0 0 3 1 2 8h-2v-2h-4v2h-2z" fill="#CDCDF6"/>
<path transform="translate(918,163)" d="m0 0 5 1v5l-5 1-2-4z" fill="#FBFCFD"/>
<path transform="translate(438,163)" d="m0 0 5 1v5l-5 1-2-4z" fill="#FBFCFD"/>
<path transform="translate(425,163)" d="m0 0 5 1v5l-5 1-2-4z" fill="#FBFCFD"/>
<path transform="translate(557,928)" d="m0 0h4l1 6-4 2-2-2z" fill="#FBFCFD"/>
<path transform="translate(547,928)" d="m0 0h4l1 6-4 2-2-2z" fill="#FBFCFD"/>
<path transform="translate(567,891)" d="m0 0h4l1 6-4 2-2-2z" fill="#FBFCFD"/>
<path transform="translate(557,891)" d="m0 0h4l1 6-4 2-2-2z" fill="#FBFCFD"/>
<path transform="translate(547,891)" d="m0 0h4l1 6-4 2-2-2z" fill="#FBFCFD"/>
<path transform="translate(567,853)" d="m0 0h4l1 6-4 2-2-2z" fill="#FBFCFD"/>
<path transform="translate(557,853)" d="m0 0h4l1 6-4 2-2-2z" fill="#FBFCFD"/>
<path transform="translate(547,853)" d="m0 0h4l1 6-4 2-2-2z" fill="#FBFCFD"/>
<path transform="translate(580,816)" d="m0 0h4l1 6-4 2-2-2z" fill="#FBFCFD"/>
<path transform="translate(570,816)" d="m0 0h4l1 6-4 2-2-2z" fill="#FBFCFD"/>
<path transform="translate(560,816)" d="m0 0h4l1 6-4 2-2-2z" fill="#FBFCFD"/>
<path transform="translate(550,816)" d="m0 0h4l1 6-4 2-2-2z" fill="#FBFCFD"/>
<path transform="translate(580,778)" d="m0 0h4l1 6-4 2-2-2z" fill="#FBFCFD"/>
<path transform="translate(570,778)" d="m0 0h4l1 6-4 2-2-2z" fill="#FBFCFD"/>
<path transform="translate(560,778)" d="m0 0h4l1 6-4 2-2-2z" fill="#FBFCFD"/>
<path transform="translate(550,778)" d="m0 0h4l1 6-4 2-2-2z" fill="#FBFCFD"/>
<path transform="translate(332,604)" d="m0 0h4l1 6-4 2-2-2z" fill="#FBFCFD"/>
<path transform="translate(332,548)" d="m0 0h4l1 6-4 2-2-2z" fill="#FBFCFD"/>
<path transform="translate(322,548)" d="m0 0h4l1 6-4 2-2-2z" fill="#FBFCFD"/>
<path transform="translate(312,548)" d="m0 0h4l1 6-4 2-2-2z" fill="#FBFCFD"/>
<path transform="translate(302,548)" d="m0 0h4l1 6-4 2-2-2z" fill="#FBFCFD"/>
<path transform="translate(332,492)" d="m0 0h4l1 6-4 2-2-2z" fill="#FBFCFD"/>
<path transform="translate(322,492)" d="m0 0h4l1 6-4 2-2-2z" fill="#FBFCFD"/>
<path transform="translate(312,492)" d="m0 0h4l1 6-4 2-2-2z" fill="#FBFCFD"/>
<path transform="translate(302,492)" d="m0 0h4l1 6-4 2-2-2z" fill="#FBFCFD"/>
<path transform="translate(332,436)" d="m0 0h4l1 6-4 2-2-2z" fill="#FBFCFD"/>
<path transform="translate(322,436)" d="m0 0h4l1 6-4 2-2-2z" fill="#FBFCFD"/>
<path transform="translate(312,436)" d="m0 0h4l1 6-4 2-2-2z" fill="#FBFCFD"/>
<path transform="translate(302,436)" d="m0 0h4l1 6-4 2-2-2z" fill="#FBFCFD"/>
<path transform="translate(332,385)" d="m0 0h4l1 6-4 2-2-2z" fill="#FBFCFD"/>
<path transform="translate(322,385)" d="m0 0h4l1 6-4 2-2-2z" fill="#FBFCFD"/>
<path transform="translate(312,385)" d="m0 0h4l1 6-4 2-2-2z" fill="#FBFCFD"/>
<path transform="translate(302,385)" d="m0 0h4l1 6-4 2-2-2z" fill="#FBFCFD"/>
<path transform="translate(96,127)" d="m0 0h2v4h4l1 7h-2l-1-5-2-1v6h-2z" fill="#4B48D2"/>
<path transform="translate(446,122)" d="m0 0h5l2 2-1 4h-6z" fill="#FBFCFD"/>
<path transform="translate(98,897)" d="m0 0 4 1 1 2-4-1-1 2h5v7h-2v-6h-3v6h-1v-6l-2-1h2z" fill="#6B7280"/>
<path transform="translate(1415,342)" d="m0 0h2l1 5 2 1v-6h2v7l-1 1h-5l-1-1z" fill="#040A18"/>
<path transform="translate(877,240)" d="m0 0h5l1 5-5 1-1 3z" fill="#5A5F68"/>
<path transform="translate(72,129)" d="m0 0 5 1 1 4-1 2h-5z" fill="#C3DDFE"/>
<path transform="translate(1469,616)" d="m0 0h3v3h2v-3l3 1-4 9-3-1 1-3z" fill="#040A18"/>
<path transform="translate(422,616)" d="m0 0h2v4h5l1-4v10h-1v-5h-5v5h-2z" fill="#6B7280"/>
<path transform="translate(739,246)" d="m0 0 5 1 5 3 1 7-3-3-1-3-4-2-5-1z" fill="#E3E3FD"/>
<path transform="translate(59,200)" d="m0 0 1 3-3 5-4 2h-6l-2-1v-2l7 1 4-2 2-5z" fill="#6D7483"/>
<path transform="translate(41,910)" d="m0 0 11 3v3h-6l-5-5z" fill="#404042"/>
<path transform="translate(123,333)" d="m0 0 5 1 1 3-3 1 2 1-5 1-2-4z" fill="#848A96"/>
<path transform="translate(119,266)" d="m0 0 5 1 1 3-3 1 2 1-5 1-2-4z" fill="#848A96"/>
<path transform="translate(97,266)" d="m0 0 5 1 1 3-3 1 2 1-5 1-2-4z" fill="#848A96"/>
<path transform="translate(106,198)" d="m0 0 5 1 1 3-3 1 2 1-5 1-2-4z" fill="#848A96"/>
<path transform="translate(1842,815)" d="m0 0 4 1v6h-4l-1-5z" fill="#FBFCFD"/>
<path transform="translate(1831,815)" d="m0 0 4 1v6h-4l-1-5z" fill="#FBFCFD"/>
<path transform="translate(1820,815)" d="m0 0 4 1v6h-4l-1-5z" fill="#FBFCFD"/>
<path transform="translate(1809,815)" d="m0 0 4 1v6h-4l-1-5z" fill="#FBFCFD"/>
<path transform="translate(1099,743)" d="m0 0h6l1 1v6h-2v-5h-3v5h-2z" fill="#040A18"/>
<path transform="translate(581,743)" d="m0 0h6l1 1v6h-2v-5h-3v5h-2z" fill="#040A18"/>
<path transform="translate(1842,623)" d="m0 0 4 1v6h-4l-1-5z" fill="#FBFCFD"/>
<path transform="translate(1831,623)" d="m0 0 4 1v6h-4l-1-5z" fill="#FBFCFD"/>
<path transform="translate(1820,623)" d="m0 0 4 1v6h-4l-1-5z" fill="#FBFCFD"/>
<path transform="translate(1809,623)" d="m0 0 4 1v6h-4l-1-5z" fill="#FBFCFD"/>
<path transform="translate(1842,431)" d="m0 0 4 1v6h-4l-1-5z" fill="#FBFCFD"/>
<path transform="translate(1831,431)" d="m0 0 4 1v6h-4l-1-5z" fill="#FBFCFD"/>
<path transform="translate(1820,431)" d="m0 0 4 1v6h-4l-1-5z" fill="#FBFCFD"/>
<path transform="translate(1809,431)" d="m0 0 4 1v6h-4l-1-5z" fill="#FBFCFD"/>
<path transform="translate(1798,431)" d="m0 0 4 1v6h-4l-1-5z" fill="#FBFCFD"/>
<path transform="translate(1858,25)" d="m0 0 2 2 3-2 5 1-4 5h-2l-1-3v3h-2z" fill="#5F646F"/>
<path transform="translate(570,966)" d="m0 0h4l1 6h-6z" fill="#FBFCFD"/>
<path transform="translate(560,966)" d="m0 0h4l1 6h-6z" fill="#FBFCFD"/>
<path transform="translate(550,966)" d="m0 0h4l1 6h-6z" fill="#FBFCFD"/>
<path transform="translate(1438,804)" d="m0 0h2v9h5v2h-7z" fill="#040A18"/>
<path transform="translate(803,741)" d="m0 0 5 1v5l-5 1z" fill="#94A3B8"/>
<path transform="translate(1888,610)" d="m0 0 5 1v5l-5 3h-2v-5l5 1v-4z" fill="#4D5460"/>
<path transform="translate(43,330)" d="m0 0h1l1 9 3 3 3 2v2l-5-2-4-4z" fill="#828C9C"/>
<path transform="translate(963,164)" d="m0 0 1 2h5v1h-5l1 2h6v3h-6l-3-3z" fill="#6B7280"/>
<path transform="translate(928,164)" d="m0 0 1 2h5v1h-5l1 2h6v3h-6l-3-3z" fill="#6B7280"/>
<path transform="translate(891,164)" d="m0 0 1 2h5v1h-5l1 2h6v3h-6l-3-3z" fill="#6B7280"/>
<path transform="translate(823,164)" d="m0 0 1 2h5v1h-5l1 2h6v3h-6l-3-3z" fill="#6B7280"/>
<path transform="translate(713,164)" d="m0 0 1 2h5v1h-5l1 2h6v3h-6l-3-3z" fill="#6B7280"/>
<path transform="translate(667,164)" d="m0 0 1 2h5v1h-5l1 2h6v3h-6l-3-3z" fill="#6B7280"/>
<path transform="translate(448,164)" d="m0 0 1 2h5v1h-5l1 2h6v3h-6l-3-3z" fill="#6B7280"/>
<path transform="translate(309,164)" d="m0 0 1 2h5v1h-5l1 2h6v3h-6l-3-3z" fill="#6B7280"/>
<path transform="translate(288,164)" d="m0 0 1 2h5v1h-5l1 2h6v3h-6l-3-3z" fill="#6B7280"/>
<path transform="translate(876,161)" d="m0 0h7v2h-5v9h-2z" fill="#6B7280"/>
<path transform="translate(606,161)" d="m0 0h7v2h-5v9h-2z" fill="#6B7280"/>
<path transform="translate(300,161)" d="m0 0h7v2h-5v9h-2z" fill="#6B7280"/>
<path transform="translate(136,71)" d="m0 0 5 1-1 4h-3l-1 3-1-1v-6z" fill="#A7ACE0"/>
<path transform="translate(92,39)" d="m0 0h7v1h-5v3l4 1h-4v3h5v1h-7z" fill="#E6E6FD"/>
<path transform="translate(109,901)" d="m0 0 5 1 1 3-5 1 3 2-5-1v-5z" fill="#8B919C"/>
<path transform="translate(289,893)" d="m0 0 5 1 1 3-5 1 3 2-5-1v-5z" fill="#3B404B"/>
<path transform="translate(289,855)" d="m0 0 5 1 1 3-5 1 3 2-5-1v-5z" fill="#3B404B"/>
<path transform="translate(309,818)" d="m0 0 5 1 1 3-5 1 3 2-5-1v-5z" fill="#3B404B"/>
<path transform="translate(301,818)" d="m0 0 5 1 1 3-5 1 3 2-5-1v-5z" fill="#3B404B"/>
<path transform="translate(336,780)" d="m0 0 5 1 1 3-5 1 3 2-5-1v-5z" fill="#3B404B"/>
<path transform="translate(677,644)" d="m0 0 5 1 1 3-5 1 3 2-5-1v-5z" fill="#7270DB"/>
<path transform="translate(807,619)" d="m0 0 5 1 1 3-5 1 3 2-5-1v-5z" fill="#8B919C"/>
<path transform="translate(455,619)" d="m0 0 5 1 1 3-5 1 3 2-5-1v-5z" fill="#8B919C"/>
<path transform="translate(328,136)" d="m0 0 4 1-1 5-5-1v-4z" fill="#040A18"/>
<path transform="translate(318,136)" d="m0 0 4 1-1 5-5-1v-4z" fill="#040A18"/>
<path transform="translate(308,136)" d="m0 0 4 1-1 5-5-1v-4z" fill="#040A18"/>
<path transform="translate(84,39)" d="m0 0h5l1 3h-2v-2h-3l1 3 4 2v5l-1-4-5-1-1-5z" fill="#E5E6FB"/>
<path transform="translate(307,39)" d="m0 0 5 1 1 3-5 1 3 2-5-1v-5z" fill="#ABB7C7"/>
<path transform="translate(1069,960)" d="m0 0h5l-4 3 4 2h-8v7h-1l-2-8 4-1z" fill="#424345"/>
<path transform="translate(573,743)" d="m0 0h2v5h2v-5h2v6l-5 1-1-1z" fill="#040A18"/>
<path transform="translate(1453,616)" d="m0 0h2v5h2v-5h2v6l-5 1-1-1z" fill="#040A18"/>
<path transform="translate(1788,429)" d="m0 0h5v12h-2v-10h-3z" fill="#4B48D2"/>
<path transform="translate(49,325)" d="m0 0h3l-1 3-5 2h-3v7h-1v-9z" fill="#78818F"/>
<path transform="translate(1464,805)" d="m0 0h2v3h2v2h-2v5h-2v-5h-2v-2h2z" fill="#040A18"/>
<path transform="translate(822,740)" d="m0 0h2v3h2v2h-2v5h-2v-5h-2v-2h2z" fill="#040A18"/>
<path transform="translate(591,740)" d="m0 0h2v3h2v2h-2v5h-2v-5h-2v-2h2z" fill="#040A18"/>
<path transform="translate(1448,613)" d="m0 0h2v3h2v2h-2v5h-2v-5h-2v-2h2z" fill="#040A18"/>
<path transform="translate(1394,434)" d="m0 0h4v7h-4z" fill="#6B7280"/>
<path transform="translate(113,71)" d="m0 0 4 4-1 4-5-1 1-5z" fill="#CACCF2"/>
<path transform="translate(1878,29)" d="m0 0 2 2v8l-2 2-1-2v-7z" fill="#99A6B9"/>
<path transform="translate(46,907)" d="m0 0 7 1-1 5-7-1 2-2z" fill="#6B7280"/>
<path transform="translate(300,777)" d="m0 0 1 3 2 1h-2v6h-1v-6l-5 1-1 5h-1v-7h7z" fill="#040A18"/>
<path transform="translate(53,191)" d="m0 0 4 1 4 7-1 2h-2l-2-6-3-2z" fill="#858C99"/>
</svg>
