<svg xmlns="http://www.w3.org/2000/svg" fill="none" viewBox="0 0 283 64"><path fill="black" d="M141 16c-11 0-19 7-19 18s9 18 20 18c7 0 13-3 16-7l-7-5c-2 3-6 4-9 4-5 0-9-3-10-7h28v-3c0-11-8-18-19-18zm-9 15c1-4 4-7 9-7s8 3 9 7h-18zm117-15c-11 0-19 7-19 18s9 18 20 18c6 0 12-3 16-7l-8-5c-2 3-5 4-8 4-5 0-9-3-11-7h28l1-3c0-11-8-18-19-18zm-10 15c2-4 5-7 10-7s8 3 9 7h-19zm-39 3c0 6 4 10 10 10 4 0 7-2 9-5l8 5c-3 5-9 8-17 8-11 0-19-7-19-18s8-18 19-18c8 0 14 3 17 8l-8 5c-2-3-5-5-9-5-6 0-10 4-10 10zm83-29v46h-9V5h9zM37 0l37 64H0L37 0zm92 5-27 48L74 5h10l18 30 17-30h10zm59 12v10l-3-1c-6 0-10 4-10 10v15h-9V17h9v9c0-5 6-9 13-9z"/></svg><?xml version="1.0" encoding="UTF-8"?>
<svg version="1.1" xmlns="http://www.w3.org/2000/svg" width="445" height="136">
<path d="M0 0 C146.85 0 293.7 0 445 0 C445 44.88 445 89.76 445 136 C298.15 136 151.3 136 0 136 C0 91.12 0 46.24 0 0 Z " fill="#4845D2" transform="translate(0,0)"/>
<path d="M0 0 C146.85 0 293.7 0 445 0 C445 1.65 445 3.3 445 5 C299.47 5 153.94 5 4 5 C4 48.23 4 91.46 4 136 C2.68 136 1.36 136 0 136 C0 91.12 0 46.24 0 0 Z " fill="#F9F7F7" transform="translate(0,0)"/>
<path d="M0 0 C1.33855862 0.00078933 2.67728408 0.02891466 4.01489258 0.0793457 C5.07393547 0.08995781 5.07393547 0.08995781 6.15437317 0.1007843 C8.40713967 0.12875166 10.65741031 0.19148361 12.90942383 0.25512695 C14.43738269 0.28020729 15.96538056 0.30302094 17.4934082 0.32348633 C21.23720688 0.37858452 24.97914241 0.46486409 28.72192383 0.56762695 C25.97729492 5.47924805 25.97729492 5.47924805 23.67895508 6.2746582 C21.69327799 6.37231445 19.70760091 6.4699707 17.72192383 6.56762695 C18.05192383 7.88762695 18.38192383 9.20762695 18.72192383 10.56762695 C21.69192383 10.56762695 24.66192383 10.56762695 27.72192383 10.56762695 C27.06192383 12.21762695 26.40192383 13.86762695 25.72192383 15.56762695 C23.41192383 15.56762695 21.10192383 15.56762695 18.72192383 15.56762695 C18.62911133 16.65043945 18.62911133 16.65043945 18.53442383 17.75512695 C17.42585894 21.59246694 15.82069345 23.06223875 12.72192383 25.56762695 C10.08484479 26.79338036 7.50058296 27.67280452 4.72192383 28.56762695 C9.99235369 35.12140025 15.36532433 41.48714134 21.06958008 47.66918945 C22.72192383 49.56762695 22.72192383 49.56762695 22.72192383 50.56762695 C19.19335546 51.12771717 17.12935709 51.39225692 13.72192383 50.56762695 C10.15360838 47.69467554 7.51260549 44.18022171 4.72192383 40.56762695 C3.05815757 38.54440502 1.39157126 36.52349822 -0.27807617 34.50512695 C-1.02057617 33.58602539 -1.76307617 32.66692383 -2.52807617 31.7199707 C-4.09985155 29.7116651 -4.09985155 29.7116651 -5.27807617 28.56762695 C-5.31871449 26.9014558 -5.32079717 25.233746 -5.27807617 23.56762695 C-3.92262695 23.3684668 -3.92262695 23.3684668 -2.53979492 23.1652832 C-1.36030273 22.98868164 -0.18081055 22.81208008 1.03442383 22.63012695 C2.20618164 22.45610352 3.37793945 22.28208008 4.58520508 22.1027832 C7.73833786 21.64669665 7.73833786 21.64669665 10.72192383 20.56762695 C11.05192383 18.91762695 11.38192383 17.26762695 11.72192383 15.56762695 C5.78192383 15.56762695 -0.15807617 15.56762695 -6.27807617 15.56762695 C-4.27807617 11.56762695 -4.27807617 11.56762695 -3.27807617 10.56762695 C-0.92494063 10.49490954 1.43026051 10.48391827 3.78442383 10.50512695 C5.07477539 10.51415039 6.36512695 10.52317383 7.69458008 10.5324707 C8.69360352 10.54407227 9.69262695 10.55567383 10.72192383 10.56762695 C7.24902671 6.76397773 4.03421164 6.41687418 -0.96557617 6.00512695 C-1.95944336 5.92133789 -2.95331055 5.83754883 -3.97729492 5.7512207 C-5.11618164 5.6603418 -5.11618164 5.6603418 -6.27807617 5.56762695 C-4.69560995 1.82513319 -4.11430722 0.71242752 0 0 Z " fill="#EDEBF4" transform="translate(353.278076171875,22.432373046875)"/>
<path d="M0 0 C3.96 0 7.92 0 12 0 C16 4 16 4 16.4609375 6.03515625 C16.30025791 9.82573391 16.14291019 11.78563471 14 15 C13.34 15 12.68 15 12 15 C12.8971875 16.2684375 12.8971875 16.2684375 13.8125 17.5625 C16.0400402 20.88399232 17.51681821 24.29204553 19 28 C16.34795104 27.63165987 15.26159944 27.3132309 13.515625 25.22265625 C13.09796875 24.50980469 12.6803125 23.79695313 12.25 23.0625 C11.82203125 22.35222656 11.3940625 21.64195313 10.953125 20.91015625 C10 19 10 19 10 17 C7.69 16.67 5.38 16.34 3 16 C3 19.96 3 23.92 3 28 C2.01 28 1.02 28 0 28 C0 18.76 0 9.52 0 0 Z " fill="#DDDBF1" transform="translate(322,35)"/>
<path d="M0 0 C11 0 11 0 14.1875 2.125 C16.31640832 5.50188906 16.6667858 7.08263344 16 11 C15.46375 11.680625 14.9275 12.36125 14.375 13.0625 C13.92125 13.701875 13.4675 14.34125 13 15 C13.78363247 18.22160015 15.477207 20.84077517 17.125 23.6875 C19 27 19 27 19 29 C17.1640625 28.77734375 17.1640625 28.77734375 15 28 C13.5859375 26.00390625 13.5859375 26.00390625 12.375 23.5625 C11.04400955 20.92171322 10.10291738 19.10291738 8 17 C6.01178687 16.60235737 4.01055661 16.26224651 2 16 C2 19.96 2 23.92 2 28 C1.34 28 0.68 28 0 28 C0 18.76 0 9.52 0 0 Z " fill="#F0EEF5" transform="translate(210,35)"/>
<path d="M0 0 C4.29 0 8.58 0 13 0 C17 5 17 5 17.5625 8 C16.77376734 12.20657416 15.50811779 13.56579582 12 16 C8.87327402 16.41306246 6.17628148 16.23703593 3 16 C3 19.96 3 23.92 3 28 C2.01 28 1.02 28 0 28 C0 18.76 0 9.52 0 0 Z " fill="#E7E5F3" transform="translate(74,35)"/>
<path d="M0 0 C4 1 4 1 5.34033203 2.53466797 C5.72560059 3.18064941 6.11086914 3.82663086 6.5078125 4.4921875 C6.93707031 5.19730469 7.36632812 5.90242188 7.80859375 6.62890625 C8.24300781 7.37011719 8.67742187 8.11132812 9.125 8.875 C10.00255046 10.33076154 10.88015267 11.78649189 11.7578125 13.2421875 C12.1408252 13.8904248 12.52383789 14.53866211 12.91845703 15.20654297 C13.89938988 16.83316435 14.94634316 18.41951474 16 20 C16.33 13.4 16.66 6.8 17 0 C17.99 0 18.98 0 20 0 C20 9.24 20 18.48 20 28 C15.47420596 26.86855149 15.27128864 26.49961504 12.984375 22.74609375 C12.45585938 21.89208984 11.92734375 21.03808594 11.3828125 20.15820312 C10.84398438 19.26037109 10.30515625 18.36253906 9.75 17.4375 C9.19570312 16.53580078 8.64140625 15.63410156 8.0703125 14.70507812 C6.7026361 12.47670882 5.34988304 10.23919278 4 8 C3.67 14.6 3.34 21.2 3 28 C2.01 28 1.02 28 0 28 C0 18.76 0 9.52 0 0 Z " fill="#E4E2F2" transform="translate(115,35)"/>
<path d="M0 0 C5.51724138 2.75862069 5.51724138 2.75862069 6.875 6.25 C6.91625 6.8275 6.9575 7.405 7 8 C4.72188709 6.90313082 2.73867706 5.80930488 0.6875 4.3125 C-2.99338178 2.51486006 -5.09211748 2.93421386 -9 4 C-11.62283334 5.28892287 -11.62283334 5.28892287 -13 8 C-13.70552402 12.7462525 -13.61222706 16.69569018 -11.5625 21.0625 C-9.78980784 23.54167167 -9.78980784 23.54167167 -7.07421875 24.23828125 C-1.92297048 24.5256548 -1.92297048 24.5256548 2.375 22 C2.91125 21.34 3.4475 20.68 4 20 C4.99 20 5.98 20 7 20 C5.70989008 22.87793751 4.42638194 24.96183917 2 27 C-1.61930698 28.20643566 -4.19231005 28.32268559 -8 28 C-12.33833918 25.74740081 -15.20287362 23.5926563 -17 19 C-17.68829606 13.9270031 -17.59408188 10.16694654 -15.25 5.5625 C-10.53256974 0.1898711 -7.15891689 -1.12709591 0 0 Z " fill="#EDEBF4" transform="translate(269,35)"/>
<path d="M0 0 C2.4375 1.8125 2.4375 1.8125 4 4 C4 4.99 4 5.98 4 7 C3.01 7 2.02 7 1 7 C-0.6875 5 -0.6875 5 -2 3 C-3.98 3.33 -5.96 3.66 -8 4 C-8 5.98 -8 7.96 -8 10 C-6.82630859 10.50660156 -6.82630859 10.50660156 -5.62890625 11.0234375 C-4.61699219 11.46945313 -3.60507813 11.91546875 -2.5625 12.375 C-1.55316406 12.81585938 -0.54382813 13.25671875 0.49609375 13.7109375 C3 15 3 15 4 17 C4.35173852 20.79877599 4.52701444 23.14360153 2.5 26.4375 C-1.00406623 28.62754139 -3.9715662 28.83375372 -8 28 C-10.5 26.1875 -10.5 26.1875 -12 24 C-12 23.01 -12 22.02 -12 21 C-11.01 21 -10.02 21 -9 21 C-8.34 21.99 -7.68 22.98 -7 24 C-3.41642759 24.25015873 -3.41642759 24.25015873 0 24 C0.74957157 20.52852158 0.74957157 20.52852158 1 17 C0.31292969 16.82984375 -0.37414062 16.6596875 -1.08203125 16.484375 C-1.98308594 16.24203125 -2.88414062 15.9996875 -3.8125 15.75 C-5.15248047 15.40195312 -5.15248047 15.40195312 -6.51953125 15.046875 C-9.42666363 13.81992779 -10.42907953 12.70462683 -12 10 C-12.5 7 -12.5 7 -12 4 C-8.4115984 -0.13209881 -5.34179574 -0.77698847 0 0 Z " fill="#E4E2F2" transform="translate(152,35)"/>
<path d="M0 0 C1.32 0 2.64 0 4 0 C5.17192435 3.12305373 6.33663876 6.24874739 7.5 9.375 C7.83386719 10.26445313 8.16773438 11.15390625 8.51171875 12.0703125 C8.82753906 12.92109375 9.14335937 13.771875 9.46875 14.6484375 C9.90864258 15.82672119 9.90864258 15.82672119 10.35742188 17.02880859 C11 19 11 19 11 21 C10.01 21 9.02 21 8 21 C7.67 19.02 7.34 17.04 7 15 C2.545 15.495 2.545 15.495 -2 16 C-2.99 18.475 -2.99 18.475 -4 21 C-4.99 21 -5.98 21 -7 21 C-4.96192707 13.8821847 -2.59655258 6.93292719 0 0 Z " fill="#E1DFF2" transform="translate(238,35)"/>
<path d="M0 0 C0.99 0 1.98 0 3 0 C5.32043574 3.16166427 7.07357209 6.57523927 9 10 C10.98 6.7 12.96 3.4 15 0 C15.99 0.33 16.98 0.66 18 1 C17.55527344 1.72445312 17.11054687 2.44890625 16.65234375 3.1953125 C16.08644531 4.16210938 15.52054688 5.12890625 14.9375 6.125 C14.36902344 7.07632813 13.80054687 8.02765625 13.21484375 9.0078125 C11.75730741 12.59775731 11.9265884 14.31263239 13 18 C14.13598907 20.2704291 14.13598907 20.2704291 15.5625 22.25 C18 25.81303116 18 25.81303116 18 28 C17.01 28 16.02 28 15 28 C13.39453125 25.8125 13.39453125 25.8125 11.8125 23 C11.28269531 22.071875 10.75289062 21.14375 10.20703125 20.1875 C9.80871094 19.465625 9.41039062 18.74375 9 18 C7.191025 20.37073647 5.53892629 22.72654038 3.9375 25.25 C3.298125 26.1575 2.65875 27.065 2 28 C1.34 28 0.68 28 0 28 C1.03523809 24.46293653 2.23423461 21.55769817 4.25 18.5 C6.33390997 15.18993044 6.33390997 15.18993044 5.5 12 C3.7914847 8.5829694 1.90901459 5.30895862 0 2 C0 1.34 0 0.68 0 0 Z " fill="#E7E5F3" transform="translate(52,35)"/>
<path d="M0 0 C0.66 0 1.32 0 2 0 C2.33 3.96 2.66 7.92 3 12 C3.90492188 10.82630859 3.90492188 10.82630859 4.828125 9.62890625 C5.62734375 8.61699219 6.4265625 7.60507812 7.25 6.5625 C8.03890625 5.55316406 8.8278125 4.54382812 9.640625 3.50390625 C11.90655283 1.09917158 12.78577367 0.28751107 16 0 C15.61328125 0.50789063 15.2265625 1.01578125 14.828125 1.5390625 C11.74572807 5.61331983 8.78428845 9.71647931 6 14 C6.74636719 14.37769531 7.49273437 14.75539063 8.26171875 15.14453125 C11.45613133 17.30907615 12.83659733 19.39432888 14.8125 22.6875 C15.41707031 23.68136719 16.02164062 24.67523438 16.64453125 25.69921875 C17.09183594 26.45847656 17.53914063 27.21773437 18 28 C15.51339545 27.6121322 14.27654781 27.29037521 12.515625 25.44140625 C12.09796875 24.82136719 11.6803125 24.20132813 11.25 23.5625 C10.82203125 22.94503906 10.3940625 22.32757813 9.953125 21.69140625 C9 20 9 20 9 18 C7.02 17.34 5.04 16.68 3 16 C3 19.96 3 23.92 3 28 C2.01 28 1.02 28 0 28 C0 18.76 0 9.52 0 0 Z " fill="#E7E5F3" transform="translate(281,35)"/>
<path d="M0 0 C4.95 0 9.9 0 15 0 C15 0.99 15 1.98 15 3 C11.04 3 7.08 3 3 3 C3 4.98 3 6.96 3 9 C5.97 9 8.94 9 12 9 C12.33 9.99 12.66 10.98 13 12 C9.7 12 6.4 12 3 12 C3 14.31 3 16.62 3 19 C6.96 19 10.92 19 15 19 C15 19.66 15 20.32 15 21 C10.05 21 5.1 21 0 21 C0 14.07 0 7.14 0 0 Z " fill="#E1DFF1" transform="translate(302,35)"/>
<path d="M0 0 C4.95 0 9.9 0 15 0 C15 0.99 15 1.98 15 3 C11.04 3 7.08 3 3 3 C3 4.98 3 6.96 3 9 C5.97 9 8.94 9 12 9 C12 9.99 12 10.98 12 12 C9.03 12 6.06 12 3 12 C3 14.31 3 16.62 3 19 C6.96 19 10.92 19 15 19 C15 19.66 15 20.32 15 21 C10.05 21 5.1 21 0 21 C0 14.07 0 7.14 0 0 Z " fill="#ECEAF4" transform="translate(95,35)"/>
<path d="M0 0 C4.95 0 9.9 0 15 0 C15 0.99 15 1.98 15 3 C11.04 3 7.08 3 3 3 C3 4.98 3 6.96 3 9 C5.97 9 8.94 9 12 9 C12 9.99 12 10.98 12 12 C9.03 12 6.06 12 3 12 C3 14.31 3 16.62 3 19 C6.96 19 10.92 19 15 19 C15 19.66 15 20.32 15 21 C10.05 21 5.1 21 0 21 C0 14.07 0 7.14 0 0 Z " fill="#E0DDF1" transform="translate(161,35)"/>
<path d="M0 0 C4.95 0 9.9 0 15 0 C15 0.99 15 1.98 15 3 C11.04 3 7.08 3 3 3 C3 4.98 3 6.96 3 9 C5.97 9 8.94 9 12 9 C12 9.99 12 10.98 12 12 C8.7 12 5.4 12 2 12 C2 14.31 2 16.62 2 19 C6.29 19 10.58 19 15 19 C15 19.66 15 20.32 15 21 C10.05 21 5.1 21 0 21 C0 14.07 0 7.14 0 0 Z " fill="#E5E3F2" transform="translate(34,35)"/>
<path d="M0 0 C1.60875 -0.04125 3.2175 -0.0825 4.875 -0.125 C5.77992188 -0.14820312 6.68484375 -0.17140625 7.6171875 -0.1953125 C10 0 10 0 12 2 C12.25 4.5 12.25 4.5 12 7 C10 9 10 9 6.375 9.125 C5.26125 9.08375 4.1475 9.0425 3 9 C3 11.31 3 13.62 3 16 C2.01 16 1.02 16 0 16 C0 10.72 0 5.44 0 0 Z " fill="#E1DFF2" transform="translate(257,108)"/>
<path d="M0 0 C7.32215357 -0.36010591 7.32215357 -0.36010591 10 1.0625 C11.57975504 4.12327538 11.36750064 6.63124415 11 10 C7.91111478 12.05925681 7.29064073 12.2390374 3.8125 12.125 C1.9253125 12.063125 1.9253125 12.063125 0 12 C0 8.04 0 4.08 0 0 Z " fill="#5552D4" transform="translate(212,37)"/>
<path d="M0 0 C7.35678392 -0.36180905 7.35678392 -0.36180905 10 1.125 C11.47901666 3.89815624 11.38601984 5.91184125 11 9 C10 10.875 10 10.875 8 12 C5.28121737 12.24131207 2.7407889 12.1347929 0 12 C0 8.04 0 4.08 0 0 Z " fill="#4F4CD3" transform="translate(77,37)"/>
<path d="M0 0 C6.8359375 0.48828125 6.8359375 0.48828125 9 1 C11 4 11 4 10.8125 7.0625 C10 10 10 10 7 12 C4.66800612 12.07905064 2.33167378 12.08798769 0 12 C0 8.04 0 4.08 0 0 Z " fill="#504DD3" transform="translate(325,37)"/>
<path d="M0 0 C1.32 0.33 2.64 0.66 4 1 C5.484375 3.87109375 5.484375 3.87109375 6.75 7.4375 C7.17796875 8.61183594 7.6059375 9.78617188 8.046875 10.99609375 C9 14 9 14 9 16 C8.01 16 7.02 16 6 16 C5.67 14.35 5.34 12.7 5 11 C2.69 11 0.38 11 -2 11 C-2.33 12.65 -2.66 14.3 -3 16 C-3.99 15.67 -4.98 15.34 -6 15 C-4.02 10.05 -2.04 5.1 0 0 Z " fill="#E6E4F3" transform="translate(207,108)"/>
<path d="M0 0 C5.28 0 10.56 0 16 0 C16 0.66 16 1.32 16 2 C13.69 2 11.38 2 9 2 C9 10.58 9 19.16 9 28 C8.34 28 7.68 28 7 28 C7 19.42 7 10.84 7 2 C4.69 2 2.38 2 0 2 C0 1.34 0 0.68 0 0 Z " fill="#F8F6F6" transform="translate(190,35)"/>
<path d="M0 0 C4.95 0 9.9 0 15 0 C15 0.99 15 1.98 15 3 C10.71 3 6.42 3 2 3 C1.67 8.94 1.34 14.88 1 21 C0.67 21 0.34 21 0 21 C0 14.07 0 7.14 0 0 Z " fill="#DBD9F0" transform="translate(302,35)"/>
<path d="M0 0 C2.97 0 5.94 0 9 0 C9.66 0.66 10.32 1.32 11 2 C8.03 2 5.06 2 2 2 C2 10.25 2 18.5 2 27 C1.34 27 0.68 27 0 27 C0 18.09 0 9.18 0 0 Z " fill="#F6F4F6" transform="translate(322,35)"/>
<path d="M0 0 C3.36720387 1.39332574 4.9859524 2.9789286 7 6 C7.928125 4.515 7.928125 4.515 8.875 3 C9.57625 2.01 10.2775 1.02 11 0 C11.66 0 12.32 0 13 0 C11.87548273 2.9719385 10.77706209 5.33440687 9 8 C8.54860541 10.0492094 8.54860541 10.0492094 8.375 12.1875 C8.25125 13.445625 8.1275 14.70375 8 16 C7.01 16 6.02 16 5 16 C4.89042969 15.34773438 4.78085938 14.69546875 4.66796875 14.0234375 C3.73491038 8.8802377 2.65215917 4.58100221 0 0 Z " fill="#D7D5F0" transform="translate(223,108)"/>
<path d="M0 0 C0.99 0 1.98 0 3 0 C3.05402274 2.10388569 3.09280256 4.20816714 3.125 6.3125 C3.14820313 7.48425781 3.17140625 8.65601562 3.1953125 9.86328125 C3 13 3 13 1 16 C-2.125 16.1875 -2.125 16.1875 -5 16 C-5.33 14.35 -5.66 12.7 -6 11 C-5.34 11.66 -4.68 12.32 -4 13 C-2.68 13.33 -1.36 13.66 0 14 C0 9.38 0 4.76 0 0 Z " fill="#CECCEE" transform="translate(191,108)"/>
<path d="M0 0 C4.95 0 9.9 0 15 0 C15 0.99 15 1.98 15 3 C11.04 3 7.08 3 3 3 C3 4.98 3 6.96 3 9 C1.5 7.875 1.5 7.875 0 6 C0 4.02 0 2.04 0 0 Z " fill="#DCDAF1" transform="translate(95,35)"/>
<path d="M0 0 C0.66 0.33 1.32 0.66 2 1 C2.33 1.99 2.66 2.98 3 4 C3.66 3.67 4.32 3.34 5 3 C5.99 6.3 6.98 9.6 8 13 C7.01 13 6.02 13 5 13 C4.773125 12.195625 4.54625 11.39125 4.3125 10.5625 C3.879375 9.716875 3.44625 8.87125 3 8 C0.45224694 7.10613836 0.45224694 7.10613836 -2 7 C-1.34 4.69 -0.68 2.38 0 0 Z " fill="#D6D4EF" transform="translate(208,111)"/>
<path d="M0 0 C0.99 0.495 0.99 0.495 2 1 C2 3.31 2 5.62 2 8 C6.29 8 10.58 8 15 8 C15 8.66 15 9.32 15 10 C10.05 10 5.1 10 0 10 C0 6.7 0 3.4 0 0 Z " fill="#F6F4F6" transform="translate(161,46)"/>
<path d="M0 0 C2.19702465 0.37879735 3.83875922 0.90210381 5.75 2.0625 C7.72473637 5.12334137 7.54996881 8.45734377 7 12 C6.01 13.485 6.01 13.485 5 15 C4.34 15 3.68 15 3 15 C2.67 15.66 2.34 16.32 2 17 C2.144375 16.29875 2.28875 15.5975 2.4375 14.875 C2.623125 13.92625 2.80875 12.9775 3 12 C3.20625 10.948125 3.4125 9.89625 3.625 8.8125 C4.26074106 6.05356428 4.26074106 6.05356428 3 4 C2.01 3.34 1.02 2.68 0 2 C0 1.34 0 0.68 0 0 Z " fill="#EBE9F4" transform="translate(331,35)"/>
<path d="M0 0 C2 3 2 3 2 7 C5.96 7 9.92 7 14 7 C14 7.66 14 8.32 14 9 C9.38 9 4.76 9 0 9 C0 6.03 0 3.06 0 0 Z " fill="#F8F6F6" transform="translate(303,47)"/>
<path d="M0 0 C0.66 0 1.32 0 2 0 C1.42655063 2.86724686 1.1385485 3.8614515 -1 6 C-1.45811675 7.97235333 -1.45811675 7.97235333 -1.625 10.125 C-1.74875 11.40375 -1.8725 12.6825 -2 14 C-3.5625 12.875 -3.5625 12.875 -5 11 C-4.89481641 6.16155493 -3.33748064 3.43861642 0 0 Z " fill="#E0DEF1" transform="translate(257,37)"/>
<path d="M0 0 C2.31 0 4.62 0 7 0 C6.67 1.65 6.34 3.3 6 5 C4.02 5 2.04 5 0 5 C0 3.35 0 1.7 0 0 Z " fill="#4E4BD3" transform="translate(260,110)"/>
<path d="M0 0 C0.99 0 1.98 0 3 0 C1.71111971 2.8751945 0.46733017 5.0071564 -2 7 C-4.1875 7.6875 -4.1875 7.6875 -6 8 C-6 7.34 -6 6.68 -6 6 C-7.65 6 -9.3 6 -11 6 C-11 5.67 -11 5.34 -11 5 C-10.37351562 4.89042969 -9.74703125 4.78085937 -9.1015625 4.66796875 C-7.87566406 4.43013672 -7.87566406 4.43013672 -6.625 4.1875 C-5.81289063 4.03667969 -5.00078125 3.88585938 -4.1640625 3.73046875 C-1.64179359 3.12455058 -1.64179359 3.12455058 0 0 Z " fill="#E1DEF2" transform="translate(273,55)"/>
<path d="M0 0 C1.32 0 2.64 0 4 0 C5.60355101 3.50776784 6.22036864 6.14354879 6 10 C5.34 10 4.68 10 4 10 C3.67 8.02 3.34 6.04 3 4 C2.01 4 1.02 4 0 4 C0 2.68 0 1.36 0 0 Z " fill="#EAE8F4" transform="translate(238,35)"/>
<path d="M0 0 C0.66 0 1.32 0 2 0 C2.66 2.31 3.32 4.62 4 7 C2.02 7 0.04 7 -2 7 C-1.34 4.69 -0.68 2.38 0 0 Z " fill="#5855D5" transform="translate(239,40)"/>
<path d="M0 0 C2.31 0 4.62 0 7 0 C7 0.33 7 0.66 7 1 C5.02 1 3.04 1 1 1 C1 2.65 1 4.3 1 6 C5.455 5.505 5.455 5.505 10 5 C9.01 6.485 9.01 6.485 8 8 C5.36 7.67 2.72 7.34 0 7 C0 4.69 0 2.38 0 0 Z " fill="#CCC9ED" transform="translate(259,109)"/>
<path d="M0 0 C2.62187494 1.04874998 3.79371361 1.64931313 5.25 4.125 C5.4975 4.74375 5.745 5.3625 6 6 C5.01 7.32 4.02 8.64 3 10 C1.87119943 6.68885166 0.78697325 3.41021743 0 0 Z " fill="#DBD9F1" transform="translate(85,35)"/>
<path d="M0 0 C1.9375 0.75 1.9375 0.75 4 2 C4.75 4.125 4.75 4.125 5 6 C4.34 6 3.68 6 3 6 C2.67 6.99 2.34 7.98 2 9 C0 3.375 0 3.375 0 0 Z " fill="#DEDBF1" transform="translate(221,36)"/>
<path d="M0 0 C1.98 1.65 3.96 3.3 6 5 C5.67 5.99 5.34 6.98 5 8 C2.5 6.8125 2.5 6.8125 0 5 C-0.3125 2.3125 -0.3125 2.3125 0 0 Z " fill="#F3F1F5" transform="translate(141,42)"/>
<path d="M0 0 C3.24271506 0.5590888 4.93057424 1.4132178 7 4 C7 4.66 7 5.32 7 6 C6.01 6 5.02 6 4 6 C3.67 5.34 3.34 4.68 3 4 C2.01 3.34 1.02 2.68 0 2 C0 1.34 0 0.68 0 0 Z " fill="#E0DEF1" transform="translate(331,35)"/>
<path d="M0 0 C0.66 0.66 1.32 1.32 2 2 C3.98821313 2.39764263 5.98944339 2.73775349 8 3 C7.67 3.66 7.34 4.32 7 5 C5.02 5 3.04 5 1 5 C0.67 3.35 0.34 1.7 0 0 Z " fill="#E1DFF2" transform="translate(185,119)"/>
<path d="M0 0 C1.9375 0.75 1.9375 0.75 4 2 C4.75 4.125 4.75 4.125 5 6 C1.83884224 4.63016497 1.0072908 4.0109362 -1 1 C-0.67 0.67 -0.34 0.34 0 0 Z " fill="#DEDCF1" transform="translate(271,37)"/>
<path d="M0 0 C0.66 0.33 1.32 0.66 2 1 C2.625 3.5625 2.625 3.5625 3 6 C1.68 6 0.36 6 -1 6 C-0.67 4.02 -0.34 2.04 0 0 Z " fill="#5F5CD6" transform="translate(208,111)"/>
<path d="M0 0 C3.875 4.75 3.875 4.75 5 7 C3.125 6.75 3.125 6.75 1 6 C-0.3125 4.0625 -0.3125 4.0625 -1 2 C-0.67 1.34 -0.34 0.68 0 0 Z " fill="#DFDDF1" transform="translate(294,56)"/>
</svg>
